<?xml version="1.0" encoding="UTF-8" standalone="no"?>
<svg
   viewBox="0 0 32 32"
   version="1.1"
   id="svg1"
   sodipodi:docname="json.svg"
   inkscape:version="1.4.4 (dcaf3e7, 2026-05-05)"
   xmlns:inkscape="http://www.inkscape.org/namespaces/inkscape"
   xmlns:sodipodi="http://sodipodi.sourceforge.net/DTD/sodipodi-0.dtd"
   xmlns="http://www.w3.org/2000/svg"
   xmlns:svg="http://www.w3.org/2000/svg">
  <defs
     id="defs1" />
  <sodipodi:namedview
     id="namedview1"
     pagecolor="#ffffff"
     bordercolor="#666666"
     borderopacity="1.0"
     inkscape:showpageshadow="2"
     inkscape:pageopacity="0.0"
     inkscape:pagecheckerboard="0"
     inkscape:deskcolor="#d1d1d1"
     inkscape:zoom="10.8125"
     inkscape:cx="16"
     inkscape:cy="16"
     inkscape:window-width="1470"
     inkscape:window-height="841"
     inkscape:window-x="0"
     inkscape:window-y="33"
     inkscape:window-maximized="1"
     inkscape:current-layer="svg1" />
  <path
     fill="#DBCD68"
     d="m 8.0549133,15.16202 c 1.4020741,0 1.5890173,-0.747773 1.5890173,-1.402074 0,-0.56083 -0.093472,-1.028188 -0.093472,-1.589018 0,-0.560829 -0.093472,-1.121659 -0.093472,-1.589017 0,-1.9629039 1.2151304,-2.8041483 3.1780344,-2.8041483 h 0.747773 v 1.7759605 h -0.373886 c -0.934717,0 -1.215131,0.5608298 -1.215131,1.4955458 0,0.373886 0.09347,0.747773 0.09347,1.215131 0,0.373886 0.09347,0.841244 0.09347,1.402074 0,1.589017 -0.654301,2.149847 -1.775961,2.430262 1.12166,0.280415 1.775961,0.841244 1.775961,2.430262 0,0.560829 -0.09347,1.028187 -0.09347,1.402074 0,0.373886 -0.09347,0.841244 -0.09347,1.121659 0,0.934716 0.280414,1.495546 1.215131,1.495546 h 0.373886 v 1.77596 h -0.747773 c -1.869432,0 -3.0845628,-0.747773 -3.0845628,-2.804148 0,-0.56083 0,-1.028188 0.093472,-1.589017 0.093472,-0.56083 0.093472,-1.12166 0.093472,-1.589018 0,-0.560829 -0.1869432,-1.402074 -1.5890173,-1.402074 z m 15.8901737,1.589017 c -1.402074,0 -1.589018,0.841245 -1.589018,1.402074 0,0.56083 0.09347,1.028188 0.09347,1.589017 0.09347,0.56083 0.09347,1.12166 0.09347,1.589018 0,2.056375 -1.308603,2.804148 -3.178035,2.804148 h -0.747773 v -1.589017 h 0.373886 c 0.934717,0 1.215131,-0.56083 1.215131,-1.495546 0,-0.373886 0,-0.747773 -0.09347,-1.121659 0,-0.467358 -0.09347,-0.934716 -0.09347,-1.402074 0,-1.589018 0.654301,-2.149847 1.775961,-2.430262 -1.12166,-0.280415 -1.775961,-0.841245 -1.775961,-2.430262 0,-0.56083 0.09347,-1.028188 0.09347,-1.402074 0.09347,-0.467358 0.09347,-0.841245 0.09347,-1.215131 0,-0.934716 -0.373886,-1.4020742 -1.215131,-1.4955458 H 18.617205 V 7.7777627 h 0.747773 c 1.962904,0 3.178035,0.8412444 3.178035,2.8041483 0,0.56083 -0.09347,1.028188 -0.09347,1.589017 -0.09347,0.56083 -0.09347,1.12166 -0.09347,1.589018 0,0.654301 0.186944,1.402074 1.589018,1.402074 z"
     id="path1"
     style="fill:#b3a32b;fill-opacity:1;stroke-width:0.999997" />
</svg>
