<?xml version="1.0" encoding="UTF-8" standalone="no"?>
<!-- Created with Inkscape (http://www.inkscape.org/) -->

<svg
   width="16"
   height="12"
   id="svg2"
   version="1.1"
   inkscape:version="1.4.4 (dcaf3e7, 2026-05-05)"
   sodipodi:docname="MFQuaternion.svg"
   xmlns:inkscape="http://www.inkscape.org/namespaces/inkscape"
   xmlns:sodipodi="http://sodipodi.sourceforge.net/DTD/sodipodi-0.dtd"
   xmlns:xlink="http://www.w3.org/1999/xlink"
   xmlns="http://www.w3.org/2000/svg"
   xmlns:svg="http://www.w3.org/2000/svg"
   xmlns:rdf="http://www.w3.org/1999/02/22-rdf-syntax-ns#"
   xmlns:cc="http://creativecommons.org/ns#"
   xmlns:dc="http://purl.org/dc/elements/1.1/">
  <defs
     id="defs4">
    <linearGradient
       id="linearGradient4389">
      <stop
         style="stop-color:#c8c8c8;stop-opacity:1;"
         offset="0"
         id="stop4391" />
      <stop
         style="stop-color:#323232;stop-opacity:1;"
         offset="1"
         id="stop4393" />
    </linearGradient>
    <linearGradient
       id="linearGradient4107">
      <stop
         style="stop-color:#000000;stop-opacity:1;"
         offset="0"
         id="stop4109" />
      <stop
         style="stop-color:#c8c8c8;stop-opacity:1;"
         offset="1"
         id="stop4111" />
    </linearGradient>
    <radialGradient
       inkscape:collect="always"
       xlink:href="#linearGradient4389"
       id="radialGradient4395"
       cx="7"
       cy="4.5"
       fx="7"
       fy="4.5"
       r="4.5"
       gradientUnits="userSpaceOnUse" />
  </defs>
  <sodipodi:namedview
     id="base"
     pagecolor="#ffffff"
     bordercolor="#666666"
     borderopacity="1.0"
     inkscape:pageopacity="0.0"
     inkscape:pageshadow="2"
     inkscape:zoom="32"
     inkscape:cx="8.296875"
     inkscape:cy="8.375"
     inkscape:document-units="px"
     inkscape:current-layer="layer2"
     showgrid="false"
     inkscape:snap-page="true"
     showguides="false"
     inkscape:guide-bbox="true"
     inkscape:window-width="1470"
     inkscape:window-height="841"
     inkscape:window-x="1"
     inkscape:window-y="33"
     inkscape:window-maximized="0"
     inkscape:snap-bbox="true"
     showborder="false"
     inkscape:showpageshadow="2"
     inkscape:pagecheckerboard="0"
     inkscape:deskcolor="#d1d1d1">
    <inkscape:grid
       type="xygrid"
       id="grid3066"
       empspacing="2"
       visible="true"
       enabled="true"
       snapvisiblegridlinesonly="true"
       spacingy="0.5px"
       spacingx="0.5px"
       originx="0"
       originy="0"
       units="px" />
    <sodipodi:guide
       orientation="1,0"
       position="6,6"
       id="guide3068"
       inkscape:locked="false" />
    <sodipodi:guide
       orientation="0,1"
       position="6,6"
       id="guide3070"
       inkscape:locked="false" />
    <sodipodi:guide
       orientation="1,0"
       position="11,-1"
       id="guide4103"
       inkscape:locked="false" />
    <sodipodi:guide
       orientation="0,1"
       position="11,11"
       id="guide4115"
       inkscape:locked="false" />
    <sodipodi:guide
       orientation="0,1"
       position="11,1"
       id="guide4117"
       inkscape:locked="false" />
    <sodipodi:guide
       orientation="1,0"
       position="1,1"
       id="guide4119"
       inkscape:locked="false" />
  </sodipodi:namedview>
  <metadata
     id="metadata7">
    <rdf:RDF>
      <cc:Work
         rdf:about="">
        <dc:format>image/svg+xml</dc:format>
        <dc:type
           rdf:resource="http://purl.org/dc/dcmitype/StillImage" />
      </cc:Work>
    </rdf:RDF>
  </metadata>
  <g
     inkscape:groupmode="layer"
     id="layer2"
     inkscape:label="Field"
     style="display:inline">
    <path
       d="m 8.2596885,4.7400411 q 0,-0.7176325 -0.176648,-1.280698 Q 7.9063925,2.8852371 7.586218,2.4877791 7.277084,2.0903212 6.8244235,1.8805517 q -0.44162,-0.22081 -0.971564,-0.22081 -0.5630655,0 -1.0157259,0.2760125 -0.44162,0.264972 -0.750754,0.7286729 -0.309134,0.463701 -0.4747415,1.0930095 -0.154567,0.618268 -0.154567,1.32486 0,0.8832399 0.1876885,1.4904674 0.1876885,0.6072275 0.507863,0.9826045 Q 4.4727971,7.919705 4.8923361,8.0853125 5.311875,8.25092 5.775576,8.25092 q 0.4968225,0 0.949483,-0.2097695 Q 7.1777195,7.831381 7.5089345,7.4008015 7.85119,6.970222 8.049919,6.307792 8.2596885,5.6453621 8.2596885,4.7400411 Z M 5.885981,1.0304332 q 0.88324,0 1.6450345,0.242891 0.7617945,0.242891 1.3248599,0.728673 0.5630655,0.4857819 0.88324,1.2365359 0.3312146,0.7397135 0.3312146,1.7333585 0,0.6513895 -0.1987286,1.2365359 Q 9.6839129,6.793574 9.3195764,7.279356 8.9552399,7.765138 8.4363365,8.140515 7.917433,8.5048515 7.255003,8.736702 7.6635015,8.957512 8.072,9.200403 q 0.4084985,0.2539314 0.7838754,0.4747414 0.375377,0.2318505 0.706592,0.4195386 0.331215,0.187689 0.5851466,0.309134 -0.3864176,0.0552 -0.7507541,0.20977 Q 9.0325234,10.768154 8.5909035,11.000004 8.2155265,10.701911 7.917433,10.47006 7.6193395,10.24925 7.3102055,10.0174 7.0010715,9.7855494 6.6256945,9.5205774 6.2503175,9.266646 5.709333,8.9023095 q -0.8059564,0 -1.5456699,-0.22081 Q 3.4239496,8.4606895 2.8608841,7.985948 2.3088591,7.500166 1.9776441,6.7604525 1.6464292,6.0096985 1.6464292,4.9829321 q 0,-0.816997 0.2980934,-1.5346295 0.309134,-0.7176325 0.861159,-1.2586169 0.552025,-0.5409845 1.3359005,-0.8501185 0.7838755,-0.309134 1.7443989,-0.309134 z"
       id="text1"
       style="font-weight:bold;font-size:11.0405px;line-height:1.25;font-family:Optima;-inkscape-font-specification:'Optima, Bold';font-variant-ligatures:none;text-align:center;text-anchor:middle"
       aria-label="Q" />
    <text
       xml:space="preserve"
       style="font-weight:bold;font-size:11.0405px;line-height:1.25;font-family:Optima;-inkscape-font-specification:'Optima, Bold';font-variant-ligatures:none;text-align:center;text-anchor:middle;display:inline;stroke-width:1"
       x="4.3994532"
       y="24.675018"
       id="text1-8"><tspan
         sodipodi:role="line"
         id="tspan1-0"
         x="4.3994532"
         y="24.675018"
         style="stroke-width:1">C</tspan></text>
    <text
       xml:space="preserve"
       style="font-weight:bold;font-size:11.0405px;line-height:1.25;font-family:Optima;-inkscape-font-specification:'Optima, Bold';font-variant-ligatures:none;text-align:center;text-anchor:middle;display:inline;stroke-width:1"
       x="14.493203"
       y="24.925018"
       id="text1-8-6"><tspan
         sodipodi:role="line"
         id="tspan1-0-0"
         x="14.493203"
         y="24.925018"
         style="stroke-width:1">Q</tspan></text>
  </g>
  <g
     inkscape:groupmode="layer"
     id="layer3"
     inkscape:label="Array"
     style="display:none"
     sodipodi:insensitive="true">
    <g
       id="g1"
       transform="translate(0.27036887,0.07627521)">
      <path
         style="display:inline;fill:none;stroke:#000000;stroke-width:1px;stroke-linecap:butt;stroke-linejoin:miter;stroke-opacity:1"
         d="m 13,8.5 h 3"
         id="path3862-0"
         inkscape:connector-curvature="0"
         sodipodi:nodetypes="cc"
         transform="translate(-0.27036887,-0.07627165)" />
      <path
         style="display:inline;fill:none;stroke:#000000;stroke-width:1px;stroke-linecap:butt;stroke-linejoin:miter;stroke-opacity:1"
         d="m 13,10.5 h 3"
         id="path3864-2"
         inkscape:connector-curvature="0"
         sodipodi:nodetypes="cc"
         transform="translate(-0.27036887,-0.07627165)" />
      <path
         sodipodi:nodetypes="cc"
         inkscape:connector-curvature="0"
         id="path3000"
         d="m 13,6.5 h 3"
         style="display:inline;fill:none;stroke:#000000;stroke-width:1px;stroke-linecap:butt;stroke-linejoin:miter;stroke-opacity:1"
         transform="translate(-0.27036887,-0.07627165)" />
    </g>
  </g>
</svg>
