<?xml version="1.0" encoding="UTF-8" standalone="no"?>
<!-- Created with Inkscape (http://www.inkscape.org/) -->

<svg
   width="16"
   height="12"
   id="svg2"
   version="1.1"
   inkscape:version="1.4.4 (dcaf3e7, 2026-05-05)"
   sodipodi:docname="MFQuaternion.svg"
   xmlns:inkscape="http://www.inkscape.org/namespaces/inkscape"
   xmlns:sodipodi="http://sodipodi.sourceforge.net/DTD/sodipodi-0.dtd"
   xmlns:xlink="http://www.w3.org/1999/xlink"
   xmlns="http://www.w3.org/2000/svg"
   xmlns:svg="http://www.w3.org/2000/svg"
   xmlns:rdf="http://www.w3.org/1999/02/22-rdf-syntax-ns#"
   xmlns:cc="http://creativecommons.org/ns#"
   xmlns:dc="http://purl.org/dc/elements/1.1/">
  <defs
     id="defs4">
    <linearGradient
       id="linearGradient4389">
      <stop
         style="stop-color:#c8c8c8;stop-opacity:1;"
         offset="0"
         id="stop4391" />
      <stop
         style="stop-color:#323232;stop-opacity:1;"
         offset="1"
         id="stop4393" />
    </linearGradient>
    <linearGradient
       id="linearGradient4107">
      <stop
         style="stop-color:#000000;stop-opacity:1;"
         offset="0"
         id="stop4109" />
      <stop
         style="stop-color:#c8c8c8;stop-opacity:1;"
         offset="1"
         id="stop4111" />
    </linearGradient>
    <radialGradient
       inkscape:collect="always"
       xlink:href="#linearGradient4389"
       id="radialGradient4395"
       cx="7"
       cy="4.5"
       fx="7"
       fy="4.5"
       r="4.5"
       gradientUnits="userSpaceOnUse" />
  </defs>
  <sodipodi:namedview
     id="base"
     pagecolor="#ffffff"
     bordercolor="#666666"
     borderopacity="1.0"
     inkscape:pageopacity="0.0"
     inkscape:pageshadow="2"
     inkscape:zoom="32"
     inkscape:cx="8.421875"
     inkscape:cy="8.5"
     inkscape:document-units="px"
     inkscape:current-layer="layer2"
     showgrid="false"
     inkscape:snap-page="true"
     showguides="false"
     inkscape:guide-bbox="true"
     inkscape:window-width="1470"
     inkscape:window-height="841"
     inkscape:window-x="0"
     inkscape:window-y="33"
     inkscape:window-maximized="0"
     inkscape:snap-bbox="true"
     showborder="false"
     inkscape:showpageshadow="2"
     inkscape:pagecheckerboard="0"
     inkscape:deskcolor="#d1d1d1">
    <inkscape:grid
       type="xygrid"
       id="grid3066"
       empspacing="2"
       visible="true"
       enabled="true"
       snapvisiblegridlinesonly="true"
       spacingy="0.5px"
       spacingx="0.5px"
       originx="0"
       originy="0"
       units="px" />
    <sodipodi:guide
       orientation="1,0"
       position="6,6"
       id="guide3068"
       inkscape:locked="false" />
    <sodipodi:guide
       orientation="0,1"
       position="6,6"
       id="guide3070"
       inkscape:locked="false" />
    <sodipodi:guide
       orientation="1,0"
       position="11,-1"
       id="guide4103"
       inkscape:locked="false" />
    <sodipodi:guide
       orientation="0,1"
       position="11,11"
       id="guide4115"
       inkscape:locked="false" />
    <sodipodi:guide
       orientation="0,1"
       position="11,1"
       id="guide4117"
       inkscape:locked="false" />
    <sodipodi:guide
       orientation="1,0"
       position="1,1"
       id="guide4119"
       inkscape:locked="false" />
  </sodipodi:namedview>
  <metadata
     id="metadata7">
    <rdf:RDF>
      <cc:Work
         rdf:about="">
        <dc:format>image/svg+xml</dc:format>
        <dc:type
           rdf:resource="http://purl.org/dc/dcmitype/StillImage" />
      </cc:Work>
    </rdf:RDF>
  </metadata>
  <g
     inkscape:groupmode="layer"
     id="layer2"
     inkscape:label="Field"
     style="display:inline">
    <text
       xml:space="preserve"
       style="font-weight:bold;font-size:11.0405px;line-height:1.25;font-family:Optima;-inkscape-font-specification:'Optima, Bold';font-variant-ligatures:none;text-align:center;text-anchor:middle;display:inline;stroke-width:1"
       x="4.3994532"
       y="24.675018"
       id="text1-8"><tspan
         sodipodi:role="line"
         id="tspan1-0"
         x="4.3994532"
         y="24.675018"
         style="stroke-width:1">C</tspan></text>
    <text
       xml:space="preserve"
       style="font-weight:bold;font-size:11.0405px;line-height:1.25;font-family:Optima;-inkscape-font-specification:'Optima, Bold';font-variant-ligatures:none;text-align:center;text-anchor:middle;display:inline;stroke-width:1"
       x="14.493203"
       y="24.925018"
       id="text1-8-6"><tspan
         sodipodi:role="line"
         id="tspan1-0-0"
         x="14.493203"
         y="24.925018"
         style="stroke-width:1">H</tspan></text>
    <path
       d="M 8.0863937,6.1483035 Q 7.5868039,6.1351564 7.0872141,6.1220093 6.5876243,6.0957151 6.0880345,6.0957151 q -0.4995898,0 -0.9991797,0.013147 -0.4995898,0.013147 -0.9991796,0.039441 v 0.7493847 q 0,1.0912094 0.026294,1.9457709 0.026294,0.8414144 0.078883,1.6565349 -0.2235007,-0.02629 -0.4864427,-0.02629 -0.262942,0 -0.5916195,0 -0.3286775,0 -0.5916195,0 -0.2629421,0 -0.4864428,0.02629 0.052588,-0.8151205 0.078883,-1.6565349 0.026294,-0.8545615 0.026294,-1.9457709 V 5.1096826 q 0,-1.0912094 -0.026294,-1.9326238 -0.026294,-0.8545615 -0.078883,-1.709123 0.2235007,0.026294 0.4864428,0.052588 0.262942,0.013147 0.5916195,0.013147 0.3286775,0 0.5916195,-0.013147 0.262942,-0.026294 0.4864427,-0.052588 -0.065735,0.8545615 -0.09203,1.6959759 -0.013147,0.8282673 -0.013147,1.9194767 0.3418246,0.013147 0.8151202,0.026294 0.4864428,0 1.1963862,0 0.7099434,0 1.1569448,0 0.4470014,-0.013147 0.8282673,-0.026294 0,-1.0912094 -0.026294,-1.9194767 -0.026294,-0.8414144 -0.078883,-1.6959759 0.2235008,0.026294 0.4864428,0.052588 0.262942,0.013147 0.5916195,0.013147 0.3286775,0 0.5916195,-0.013147 0.262942,-0.026294 0.4864423,-0.052588 -0.05259,0.8545615 -0.07888,1.709123 -0.02629,0.8414144 -0.02629,1.9326238 v 1.7880056 q 0,1.0912094 0.02629,1.9457709 0.02629,0.8414144 0.07888,1.6565349 -0.2235003,-0.02629 -0.4864423,-0.02629 -0.262942,0 -0.5916195,0 -0.3286775,0 -0.5916195,0 -0.262942,0 -0.4864428,0.02629 0.052588,-0.8151205 0.078883,-1.6565349 0.026294,-0.8545615 0.026294,-1.9457709 V 6.1483035 Z"
       id="text1-8-6-0"
       style="font-weight:bold;font-size:13.1471px;line-height:1.25;font-family:Optima;-inkscape-font-specification:'Optima, Bold';font-variant-ligatures:none;text-align:center;text-anchor:middle;stroke-width:0.999992"
       aria-label="H" />
  </g>
  <g
     inkscape:groupmode="layer"
     id="layer3"
     inkscape:label="Array"
     style="display:none"
     sodipodi:insensitive="true">
    <g
       id="g1"
       transform="translate(0.27036887,0.07627521)">
      <path
         style="display:inline;fill:none;stroke:#000000;stroke-width:1px;stroke-linecap:butt;stroke-linejoin:miter;stroke-opacity:1"
         d="m 13,8.5 h 3"
         id="path3862-0"
         inkscape:connector-curvature="0"
         sodipodi:nodetypes="cc"
         transform="translate(-0.27036887,-0.07627165)" />
      <path
         style="display:inline;fill:none;stroke:#000000;stroke-width:1px;stroke-linecap:butt;stroke-linejoin:miter;stroke-opacity:1"
         d="m 13,10.5 h 3"
         id="path3864-2"
         inkscape:connector-curvature="0"
         sodipodi:nodetypes="cc"
         transform="translate(-0.27036887,-0.07627165)" />
      <path
         sodipodi:nodetypes="cc"
         inkscape:connector-curvature="0"
         id="path3000"
         d="m 13,6.5 h 3"
         style="display:inline;fill:none;stroke:#000000;stroke-width:1px;stroke-linecap:butt;stroke-linejoin:miter;stroke-opacity:1"
         transform="translate(-0.27036887,-0.07627165)" />
    </g>
  </g>
</svg>
